<?xml version="1.0" encoding="utf-8"?>
<!-- Generator: Adobe Illustrator 26.0.1, SVG Export Plug-In . SVG Version: 6.00 Build 0)  -->
<svg version="1.1" id="Layer_1" xmlns="http://www.w3.org/2000/svg" xmlns:xlink="http://www.w3.org/1999/xlink" x="0px" y="0px"
	 viewBox="0 0 823.4 929.17" style="enable-background:new 0 0 823.4 929.17;" xml:space="preserve">
<style type="text/css">
	.st0{fill-rule:evenodd;clip-rule:evenodd;fill:#DAE8F7;}
	.st1{fill-rule:evenodd;clip-rule:evenodd;fill:#A5BAC8;}
	.st2{fill-rule:evenodd;clip-rule:evenodd;fill:#70C9BE;}
</style>
<g>
	<g>
		<path class="st0" d="M411.21,475.75c-50.36,0-94.33-27.36-117.85-68.02l-80.03,46.2c-4.65,2.69-6.13,8.72-3.25,13.26
			c42.24,66.49,116.53,110.61,201.13,110.61c88.13,0,165.07-47.88,206.24-119.04l-80.49-46.47c-4.31-2.49-9.8-1.2-12.57,2.94
			C499.99,451.72,458.41,475.75,411.21,475.75L411.21,475.75z M697.54,174.37c4.61-2.66,6.11-8.62,3.31-13.15
			C640.94,64.19,533.63-0.47,411.21-0.47c-125.89,0-235.81,68.39-294.63,170.05l80.38,46.41c4.4,2.54,10,1.15,12.71-3.15
			c42.16-66.85,116.67-111.26,201.55-111.26c88.13,0,165.07,47.88,206.24,119.04L697.54,174.37z"/>
		<path class="st1" d="M411.21,577.79c-84.6,0-158.89-44.12-201.13-110.61c-2.88-4.53-1.4-10.57,3.25-13.26l80.03-46.2
			c-11.58-20.02-18.21-43.25-18.21-68.04c0-74.79,60.56-136.06,136.06-136.06c47.2,0,88.78,24.03,113.19,60.52
			c2.76,4.13,8.26,5.42,12.57,2.94l80.49-46.47c-41.17-71.16-118.12-119.04-206.24-119.04c-84.88,0-159.38,44.41-201.55,111.26
			c-2.71,4.29-8.32,5.68-12.71,3.15l-80.38-46.41c-28.95,50.04-45.52,108.14-45.52,170.11c0,186.97,151.39,340.16,340.16,340.16
			c122.41,0,229.72-64.66,289.64-161.7c2.8-4.53,1.29-10.49-3.31-13.15l-80.08-46.24C576.28,529.92,499.34,577.79,411.21,577.79z"/>
	</g>
	<path class="st2" d="M698,376.27V303.1l-63.37,36.58L698,376.27L698,376.27z M587.39,323.32L707.45,254
		c12.57-7.26,28.35,1.85,28.35,16.37V409c0,14.51-15.78,23.62-28.35,16.37l-120.06-69.32C574.84,348.8,574.84,330.56,587.39,323.32z
		"/>
	<g>
		<path id="R" class="st2" d="M165.45,889.07l26.96,32.13c2.31,2.76,0.34,6.98-3.26,6.98h-19.71c-4.19,0-8.16-1.85-10.86-5.06
			l-22.68-27.03v27.84c0,2.35-1.9,4.25-4.25,4.25h-9.92c-7.83,0-14.17-6.34-14.17-14.17v-85.04c0-7.83,6.35-14.17,14.17-14.17h29.76
			c22.7,0,41.1,17.13,41.1,38.27C192.6,869.64,181.28,883.75,165.45,889.07L165.45,889.07z M135.91,838.89v32.6l8.5,0
			c10.96,0,19.84-7.3,19.84-16.3c0-9-8.88-16.3-19.84-16.3H135.91L135.91,838.89z"/>
		<path id="P" class="st2" d="M27.86,891.33v32.6c0,2.35-1.9,4.25-4.25,4.25h-9.92c-7.83,0-14.17-6.34-14.17-14.17v-85.04
			c0-7.83,6.35-14.17,14.17-14.17h29.76c22.7,0,41.1,17.26,41.1,38.27c0,21-18.4,38.27-41.1,38.27H27.86z M27.86,838.89v32.6h8.5
			c10.96,0,19.84-7.3,19.84-16.3c0-9-8.88-16.3-19.84-16.3H27.86L27.86,838.89z"/>
		<path class="st2" d="M400.26,927.73c-5.88-0.02-11.35-3.73-13.36-9.6l-27.77-81.45c-2.53-7.41,1.43-15.46,8.84-17.99l9.39-3.2
			c2.22-0.76,4.64,0.43,5.4,2.65l0,0l21.12,61.94l21.94-61.86l0,0c0.78-2.21,3.22-3.37,5.43-2.59l9.35,3.32
			c7.38,2.62,11.24,10.72,8.62,18.1l-28.77,81.1c-2.06,5.81-7.53,9.44-13.36,9.44L400.26,927.73z"/>
		<path class="st2" d="M745.16,875.27l-15.67,42.89c-2.06,5.81-7.53,9.44-13.36,9.44l-6.82,0.14c-5.88-0.02-11.35-3.73-13.36-9.6
			l-27.77-81.45c-2.53-7.41,1.43-15.46,8.84-17.99l9.39-3.2c2.22-0.76,4.64,0.43,5.4,2.65l0,0l21.12,61.94l21.94-61.86
			c3.18-5.52,16.65-5.75,20.77-0.09l0,0l21.12,61.94l21.94-61.86l0,0c0.78-2.21,3.22-3.37,5.43-2.59l9.35,3.32
			c7.38,2.62,11.24,10.72,8.62,18.1l-28.77,81.1c-2.06,5.81-7.53,9.44-13.36,9.44l-6.82,0.14c-5.88-0.02-11.35-3.73-13.36-9.6
			L745.16,875.27z"/>
		<path class="st2" d="M291.63,903.07l15.25,0.01c7.83,0,14.17,6.09,14.17,13.92v5.92c0,2.35-1.9,4.25-4.25,4.25l0,0l-25.18-0.03
			l-40.19,0.01c-7.83,0-14.17-6.35-14.17-14.17v-22.68v-62.36c0-7.83,6.35-14.17,14.17-14.17l33.47,0h33.32l0,0
			c2.35,0,4.25,1.9,4.25,4.25v5.92c0,7.83-6.35,13.92-14.17,13.92h-42.69v22.6l35.18-0.03l0,0c2.35,0,4.25,1.9,4.25,4.25v5.92
			c0,7.83-6.35,13.92-14.17,13.92h-25.25v18.53L291.63,903.07z"/>
		<path class="st2" d="M610.01,903.07l15.25,0.01c7.83,0,14.17,6.09,14.17,13.92v5.92c0,2.35-1.9,4.25-4.25,4.25l0,0l-25.18-0.03
			l-40.19,0.01c-7.83,0-14.17-6.35-14.17-14.17v-22.68v-62.36c0-7.83,6.35-14.17,14.17-14.17l33.47,0h33.32l0,0
			c2.35,0,4.25,1.9,4.25,4.25v5.92c0,7.83-6.35,13.92-14.17,13.92h-42.69v22.6l35.18-0.03l0,0c2.35,0,4.25,1.9,4.25,4.25v5.92
			c0,7.83-6.35,13.92-14.17,13.92h-25.25v18.53L610.01,903.07z"/>
		<path class="st2" d="M508.61,914.52v9.92l0,0c0,2.35-1.9,4.25-4.25,4.25h-9.92c-7.83,0-14.17-6.35-14.17-14.17v-95.98l0,0
			c0-2.35,1.9-4.25,4.25-4.25h9.92c7.83,0,14.17,6.35,14.17,14.17V914.52z"/>
	</g>
</g>
</svg>
