<?xml version="1.0" encoding="utf-8"?>
<!-- Generator: Adobe Illustrator 26.0.1, SVG Export Plug-In . SVG Version: 6.00 Build 0)  -->
<svg version="1.1" id="Layer_1" xmlns="http://www.w3.org/2000/svg" xmlns:xlink="http://www.w3.org/1999/xlink" x="0px" y="0px"
	 viewBox="0 0 664.74 687.72" style="enable-background:new 0 0 664.74 687.72;" xml:space="preserve">
<style type="text/css">
	.st0{fill-rule:evenodd;clip-rule:evenodd;fill:#DAE8F7;}
	.st1{fill-rule:evenodd;clip-rule:evenodd;fill:#A5BAC8;}
	.st2{fill-rule:evenodd;clip-rule:evenodd;fill:#70C9BE;}
	.st3{fill-rule:evenodd;clip-rule:evenodd;fill:#FFFFFF;}
	.st4{fill-rule:evenodd;clip-rule:evenodd;fill:none;stroke:#233D39;stroke-width:20;stroke-miterlimit:10;}
</style>
<g>
	<g>
		<path class="st0" d="M340.41,471.65c-50.36,0-94.33-27.36-117.85-68.02l-80.03,46.2c-4.65,2.69-6.13,8.72-3.25,13.26
			c42.24,66.49,116.53,110.61,201.13,110.61c88.13,0,165.07-47.88,206.24-119.04l-80.49-46.47c-4.31-2.49-9.8-1.21-12.57,2.94
			C429.19,447.62,387.61,471.65,340.41,471.65L340.41,471.65z M626.73,170.28c4.61-2.66,6.11-8.62,3.31-13.15
			C570.13,60.1,462.82-4.57,340.41-4.57c-125.89,0-235.81,68.39-294.63,170.05l80.38,46.41c4.4,2.54,10,1.15,12.71-3.15
			c42.16-66.85,116.67-111.26,201.55-111.26c88.13,0,165.07,47.88,206.24,119.04L626.73,170.28z"/>
		<path class="st1" d="M340.41,573.7c-84.6,0-158.89-44.12-201.13-110.61c-2.88-4.53-1.4-10.57,3.25-13.26l80.03-46.2
			c-11.58-20.02-18.21-43.25-18.21-68.04c0-74.79,60.56-136.06,136.06-136.06c47.2,0,88.78,24.03,113.19,60.52
			c2.76,4.13,8.26,5.42,12.57,2.94l80.49-46.47C505.48,145.36,428.53,97.48,340.41,97.48c-84.88,0-159.38,44.41-201.55,111.26
			c-2.71,4.29-8.32,5.68-12.71,3.15l-80.38-46.41C16.82,215.52,0.25,273.62,0.25,335.59c0,186.97,151.39,340.16,340.16,340.16
			c122.41,0,229.72-64.66,289.64-161.7c2.8-4.53,1.29-10.49-3.31-13.15l-80.08-46.24C505.48,525.83,428.53,573.7,340.41,573.7z"/>
	</g>
	<path class="st2" d="M627.2,372.17v-73.17l-63.37,36.58L627.2,372.17L627.2,372.17z M516.59,319.23l120.06-69.32
		c12.57-7.26,28.35,1.85,28.35,16.37v138.63c0,14.51-15.78,23.62-28.35,16.37l-120.06-69.32
		C504.04,344.71,504.04,326.47,516.59,319.23z"/>
</g>
<g>
	<path class="st2" d="M364.72,459c-4.81-10.91,3.52-25.15,18.61-31.8c15.09-6.65,31.21-3.2,36.02,7.71l93.93,213.06
		c4.81,10.91-3.52,25.15-18.61,31.8c-15.09,6.65-31.21,3.2-36.02-7.71L364.72,459z"/>
	<circle class="st2" cx="342.23" cy="335.59" r="100.59"/>
	<path class="st3" d="M498.61,683.16c4.25-6.2,5.59-13.22,2.94-19.23l-93.82-213.16c-4.8-10.92-20.91-14.37-35.98-7.72
		c-3.42,1.51-6.49,3.42-9.15,5.58c3.47-5.07,8.87-9.59,15.65-12.58c15.07-6.65,31.18-3.2,35.98,7.72l93.82,213.16
		C511.76,665.37,507.63,675.79,498.61,683.16z"/>
	<path class="st3" d="M343.07,435.84c45.91-9.28,80.49-49.85,80.49-98.5c0-55.51-45-100.5-100.5-100.5c-3.38,0-6.72,0.17-10.01,0.5
		c6.47-1.31,13.16-2,20.01-2c55.51,0,100.5,45,100.5,100.5C433.56,387.96,393.87,430.81,343.07,435.84z"/>
	<path class="st4" d="M364.72,459c-4.81-10.91,3.52-25.15,18.61-31.8c15.09-6.65,31.21-3.2,36.02,7.71l93.93,213.06
		c4.81,10.91-3.52,25.15-18.61,31.8c-15.09,6.65-31.21,3.2-36.02-7.71L364.72,459z"/>
	<circle class="st4" cx="342.23" cy="335.59" r="100.59"/>
</g>
</svg>
